<?xml version="1.0" encoding="UTF-8" standalone="no"?><svg xmlns="http://www.w3.org/2000/svg" xmlns:xlink="http://www.w3.org/1999/xlink" contentStyleType="text/css" height="376px" preserveAspectRatio="none" style="width:336px;height:376px;background:#FFFFFF;" version="1.1" viewBox="0 0 336 376" width="336px" zoomAndPan="magnify"><defs/><g><!--cluster AWS Cloud--><g id="cluster_AWS Cloud"><path d="M37.0005,23.9287 C43.7262,12.5911 52.9487,11.9011 59.6004,24.0001 C63.7139,14.0669 71.8184,12.644 78.0375,21.9861 C82.418,10.8051 91.2385,11.99 97.8004,19.7045 C104.3786,12.1804 111.8452,12.6364 117.3418,21.0321 C120.2765,10.728 129.2941,10.9251 135.1415,18.059 C139.5362,10.3622 147.1874,8.4652 152.9578,16.5011 C158.8582,6.3962 167.0873,6.9188 172.1937,17.2485 C176.1122,8.9019 184.8448,6 190.5511,15.399 C199.3473,6.1719 206.9064,7.8514 212.1302,19.1541 C218.0263,10.1278 223.6883,10.3413 230.0155,18.7108 C235.9808,9.6035 244.9342,10.0747 249.5379,20.1002 C257.4139,11.3037 263.593,13.0343 269.4135,22.3552 C276.1692,15.7545 282.2543,16.2979 287.1578,24.5656 C298.1493,12.6401 306.916,17.5642 312.8355,29.9276 C314.6612,30.4517 314.8632,32.013 313.6404,33.271 C325.8764,35.6941 325.9851,43.241 320.0722,51.9226 C329.7313,56.7686 329.6188,64.6178 320.2779,69.6839 C326.7183,76.2944 327.9195,83.3719 317.7148,87.6014 C325.1713,101.6109 320.5955,108.2322 305.8355,110.9276 C306.8438,110.9363 307.244,111.6507 306.7771,112.5275 C302.2079,122.2112 295.4702,123.4243 288.1657,115.4028 C283.5549,123.6684 276.0084,123.2893 270.6756,116.2266 C264.5189,124.6716 258.1858,124.5749 251.8226,116.4618 C244.4,126.6408 237.5558,127.9212 230.3563,116.2427 C226.6833,124.5197 218.9369,126.0543 213.4711,118.1086 C206.8208,129.6063 198.2522,127.5231 191.9521,117.7542 C187.5323,125.8129 180.5624,126.5777 174.3895,119.8343 C168.0662,129.4009 158.3015,127.6954 153.3191,118.341 C147.683,127.1824 139.8042,128.4692 134.318,118.192 C127.9487,126.9074 120.9552,126.8851 115.1001,117.6418 C109.0229,126.6465 101.6427,125.2438 95.9648,117.1938 C90.4701,124.4869 82.0764,123.3713 78.0427,115.4705 C70.3381,124.1833 61.8927,125.4566 56.0628,113.479 C44.398,122.1091 33.3967,117.549 29.8355,103.9276 C30.9264,102.3428 32.633,102.6907 33.4115,104.2795 C13.734,95.6638 13.3778,82.561 26.3926,67.6763 C6,49.5262 14.151,31.0249 36.8355,22.9276 C37.2798,23.1138 37.4771,23.5907 37.0005,23.9287 " fill="none" style="stroke:#181818;stroke-width:1.0;"/><text fill="#000000" font-family="sans-serif" font-size="14" font-weight="bold" lengthAdjust="spacing" textLength="86" x="128.3355" y="40.9227">AWS Cloud</text></g><!--entity S3--><g id="elem_S3"><rect fill="#F1F1F1" height="52.5938" rx="35" ry="35" style="stroke:#181818;stroke-width:0.5;" width="104" x="37.8355" y="49.9276"/><text fill="#000000" font-family="sans-serif" font-size="14" lengthAdjust="spacing" textLength="80" x="47.8355" y="72.9227">Amazon S3</text><text fill="#000000" font-family="sans-serif" font-size="14" lengthAdjust="spacing" textLength="51" x="47.8355" y="89.2195">bucket</text></g><!--entity Bp--><g id="elem_Bp"><rect fill="#F1F1F1" height="39.2969" rx="2.5" ry="2.5" style="stroke:#181818;stroke-width:0.5;" width="128" x="176.8355" y="56.9276"/><polygon fill="#F1F1F1" points="287.8355,61.9276,287.8355,75.9276,299.8355,75.9276,299.8355,67.9276,293.8355,61.9276,287.8355,61.9276" style="stroke:#181818;stroke-width:0.5;"/><line style="stroke:#181818;stroke-width:0.5;" x1="293.8355" x2="293.8355" y1="61.9276" y2="67.9276"/><line style="stroke:#181818;stroke-width:0.5;" x1="299.8355" x2="293.8355" y1="67.9276" y2="67.9276"/><text fill="#000000" font-family="sans-serif" font-size="14" lengthAdjust="spacing" textLength="98" x="186.8355" y="82.9227">Bucket policy</text></g><!--entity re--><g id="elem_re"><ellipse cx="89.8355" cy="303.4276" fill="#F1F1F1" rx="8" ry="8" style="stroke:#181818;stroke-width:0.5;"/><path d="M89.8355,311.4276 L89.8355,338.4276 M76.8355,319.4276 L102.8355,319.4276 M89.8355,338.4276 L76.8355,353.4276 M89.8355,338.4276 L102.8355,353.4276 " fill="none" style="stroke:#181818;stroke-width:0.5;"/><text fill="#000000" font-family="sans-serif" font-size="14" lengthAdjust="spacing" textLength="105" x="37.3355" y="367.9227">Island resident</text></g><!--entity Iwp--><g id="elem_Iwp"><rect fill="#F1F1F1" height="36.2969" rx="2.5" ry="2.5" style="stroke:#181818;stroke-width:0.5;" width="143" x="18.3355" y="181.9276"/><text fill="#000000" font-family="sans-serif" font-size="14" lengthAdjust="spacing" textLength="123" x="28.3355" y="204.9227">Island web portal</text></g><!--reverse link S3 to Bp--><g id="link_S3_Bp"><path d="M147.1925,76.4276 C157.0515,76.4276 166.9115,76.4276 176.7705,76.4276 " fill="none" id="S3-backto-Bp" style="stroke:#181818;stroke-width:1.0;"/><polygon fill="#181818" points="142.0365,76.4276,151.0365,80.4276,147.0365,76.4276,151.0365,72.4276,142.0365,76.4276" style="stroke:#181818;stroke-width:1.0;"/></g><!--reverse link S3 to Iwp--><g id="link_S3_Iwp"><path d="M36.1293,106.2576 C19.926,118.9576 8.5984,134.8666 17.8355,151.9276 C24.7296,164.6606 36.7362,174.4926 48.9914,181.7936 " fill="none" id="S3-backto-Iwp" style="stroke:#181818;stroke-width:1.0;"/><polygon fill="#181818" points="40.3442,103.0996,30.7432,105.2953,36.3429,106.0978,35.5404,111.6974,40.3442,103.0996" style="stroke:#181818;stroke-width:1.0;"/><text fill="#000000" font-family="sans-serif" font-size="13" lengthAdjust="spacing" textLength="96" x="18.8355" y="147.9944">2. Get Request</text></g><!--link S3 to Iwp--><g id="link_S3_Iwp"><path d="M109.4035,103.1856 C117.7935,117.3326 124.6805,135.3306 119.8355,151.9276 C117.1805,161.0226 112.1705,170.0326 106.9945,177.6946 " fill="none" id="S3-to-Iwp" style="stroke:#181818;stroke-width:1.0;"/><polygon fill="#181818" points="104.1152,181.8036,112.5549,176.7269,106.9838,177.7083,106.0024,172.1372,104.1152,181.8036" style="stroke:#181818;stroke-width:1.0;"/><text fill="#000000" font-family="sans-serif" font-size="13" lengthAdjust="spacing" textLength="91" x="121.8355" y="147.9944">3. Root Object</text></g><!--reverse link Iwp to re--><g id="link_Iwp_re"><path d="M47.9216,220.7056 C30.8007,231.8416 16.5262,247.0916 23.8355,264.9276 C28.2935,275.8055 35.4645,285.8645 43.4699,294.7046 " fill="none" id="Iwp-backto-re" style="stroke:#181818;stroke-width:1.0;"/><polygon fill="#181818" points="52.3243,217.9646,42.5699,219.3248,48.0795,220.6068,46.7975,226.1165,52.3243,217.9646" style="stroke:#181818;stroke-width:1.0;"/><text fill="#000000" font-family="sans-serif" font-size="13" lengthAdjust="spacing" textLength="84" x="24.8355" y="260.9944">1. Visit Portal</text></g><!--link Iwp to re--><g id="link_Iwp_re"><path d="M101.0347,218.0126 C106.0105,226.6096 111.3075,237.4166 113.8355,247.9276 C117.1525,261.7176 114.8435,276.6419 110.5765,290.0314 " fill="none" id="Iwp-to-re" style="stroke:#181818;stroke-width:1.0;"/><polygon fill="#181818" points="108.9225,294.8901,115.6098,287.6596,110.5341,290.1569,108.0367,285.0811,108.9225,294.8901" style="stroke:#181818;stroke-width:1.0;"/><text fill="#000000" font-family="sans-serif" font-size="13" lengthAdjust="spacing" textLength="81" x="115.8355" y="260.9944">4. Wave Info</text></g><!--SRC=[FOz1JyCm38Nl-HLFkRSIbDE4a3OEgATDgyGkNDpKcm8XAKdA18Z_ZfDAI3xOVkzxbida4A7xvCXFY9pin3vhK991HJQP_CNnl-FA8-OGCxdgwQ-pKiQ5POBUdWOybbRZHm5IIRBf8l3sdRw3nz3XnO-BUUFrmj29YMAsPp8PUbSLYNVMV5N3RXQ3KFUDj2LH_Igrpd9vWziMJq8S-MFXb8lID0-hrBKuXf2n7r_b2IMxGaNUuAR5iqqsur3_g5B1YdRNuaIVZDwVmny0]--></g></svg>